


Format                           : AVI
Format/Info                      : Audio Video Interleave
File size                        : 1.01 GiB
Duration                         : 1h 51mn
Overall bit rate                 : 1 298 Kbps
Writing library                  : VirtualDub build 32839/release

Video
ID                               : 0
Format                           : MPEG-4 Visual
Format profile                   : Advanced Simple@L5
Format settings, BVOP            : Yes
Format settings, QPel            : No
Format settings, GMC             : No warppoints
Format settings, Matrix          : Custom
Codec ID                         : XVID
Codec ID/Hint                    : XviD
Duration                         : 1h 51mn
Bit rate                         : 1 156 Kbps
Width                            : 720 pixels
Height                           : 480 pixels
Display aspect ratio             : 3:2
Frame rate                       : 29.970 fps
Standard                         : NTSC
Color space                      : YUV
Chroma subsampling               : 4:2:0
Bit depth                        : 8 bits
Scan type                        : Progressive
Bits/(Pixel*Frame)               : 0.112
Stream size                      : 926 MiB (89%)
Writing library                  : XviD 1.2.1 (UTC 2008-12-04)

Audio
ID                               : 1
Format                           : MPEG Audio
Format version                   : Version 1
Format profile                   : Layer 3
Mode                             : Joint stereo
Mode extension                   : MS Stereo
Codec ID                         : 55
Codec ID/Hint                    : MP3
Duration                         : 1h 51mn
Bit rate mode                    : Constant
Bit rate                         : 128 Kbps
Channel(s)                       : 2 channels
Sampling rate                    : 44.1 KHz
Stream size                      : 102 MiB (10%)
Alignment                        : Aligned on interleaves
Interleave, duration             : 26 ms (0.78 video frame)
Interleave, preload duration     : 522 ms
Writing library                  : LAME3.98.2



 
http://www.imdb.com/title/tt1161864/






Users: 6.1/10 (5,291 votes) 79 reviews | Critics: 161 reviews Metascore: 38/100 (based on 33 reviews from Metacritic.com)

An American seminary student travels to Italy to take an exorcism course.
Director:
Mikael Håfström
Writers:
Michael Petroni, Matt Baglio (book) (suggestion)
Stars:
Colin O'Donoghue, Anthony Hopkins and Ciarán 







 
http://img39.imageshack.us/img39/9519/vlcsnap2011041015h37m31.png
 
http://img717.imageshack.us/img717/9464/vlcsnap2011041015h55m54.png
 
http://img156.imageshack.us/img156/6946/vlcsnap2011041015h37m00.png


Source used 

IFLiX ...................... Thanks 

Deinterlaced ,slight rgb colour change used the levels filter and slightest smoother 

Enjoy 




Greetz to Imagine ,Flawl3ss,DiLLoN,BDK,NOiR,TOXiCiNK,THC,Ez,Rx,Boobyblue





